<svg width="299" height="200" viewBox="0 0 299 200" fill="none" xmlns="http://www.w3.org/2000/svg">
<path fill-rule="evenodd" clip-rule="evenodd" d="M29.7178 199.042H31.7911H33.8645C33.8645 196.752 32.0079 194.895 29.7178 194.895H8.29334C7.72345 194.895 7.19032 194.783 6.70715 194.582C6.06981 194.318 5.40428 194.225 4.7614 194.281C4.81754 193.638 4.72398 192.972 4.45969 192.335C4.25932 191.852 4.14667 191.319 4.14667 190.749V171.052C4.14667 168.762 2.29014 166.905 0 166.905V168.979V171.052V190.749C0 191.873 0.223806 192.946 0.629303 193.923C0.89693 194.569 1.2437 195.173 1.65751 195.724C1.70624 195.789 1.75589 195.853 1.80645 195.916C2.19537 196.404 2.63811 196.847 3.12567 197.236C3.18905 197.286 3.2532 197.336 3.31808 197.385C3.86912 197.798 4.47338 198.145 5.11875 198.413C6.0966 198.818 7.16884 199.042 8.29334 199.042H29.7178ZM115.416 194.895C117.706 194.895 119.562 196.752 119.562 199.042H117.489H115.416H72.5667H70.4934H68.42C68.42 196.752 70.2766 194.895 72.5667 194.895H115.416ZM201.113 194.895C203.404 194.895 205.26 196.752 205.26 199.042H203.187H201.113H158.264H156.191H154.118C154.118 196.752 155.974 194.895 158.264 194.895H201.113ZM158.264 29.0287C155.974 29.0287 154.118 27.1722 154.118 24.8821H156.191H158.264H201.113H203.187H205.26C205.26 27.1722 203.404 29.0287 201.113 29.0287H158.264ZM72.5667 29.0287C70.2765 29.0287 68.42 27.1722 68.42 24.8821H70.4934H72.5667H115.416H117.489H119.562C119.562 27.1722 117.706 29.0287 115.416 29.0287H72.5667ZM4.14667 52.8721C4.14667 55.1622 2.29014 57.0187 0 57.0187V54.9454V52.8721V33.1754C0 32.0509 0.223805 30.9787 0.629303 30.0008C0.896929 29.3554 1.2437 28.7512 1.65751 28.2001C1.70623 28.1353 1.75588 28.0711 1.80644 28.0077C2.19536 27.5202 2.6381 27.0774 3.12567 26.6885C3.18905 26.6379 3.25319 26.5883 3.31807 26.5396C3.86911 26.1258 4.47338 25.779 5.11875 25.5114C6.0966 25.1059 7.16883 24.8821 8.29334 24.8821H29.7178H31.7911H33.8645C33.8645 27.1722 32.0079 29.0287 29.7178 29.0287H8.29334C7.72344 29.0287 7.19031 29.1414 6.70714 29.3418C6.06981 29.6061 5.40428 29.6996 4.7614 29.6435C4.81754 30.2863 4.72398 30.9519 4.45969 31.5892C4.25932 32.0724 4.14667 32.6055 4.14667 33.1754V52.8721ZM4.14667 131.659C4.14667 133.949 2.29014 135.805 0 135.805V133.732V131.659V92.2654V90.1921V88.1188C2.29014 88.1188 4.14667 89.9753 4.14667 92.2654V131.659ZM243.962 29.0287C241.672 29.0287 239.816 27.1722 239.816 24.8821H241.889H243.962H265.387C266.511 24.8821 267.583 25.1059 268.561 25.5114C269.207 25.779 269.811 26.1258 270.362 26.5396C270.427 26.5883 270.491 26.638 270.554 26.6885C271.042 27.0774 271.485 27.5202 271.874 28.0077C271.924 28.0711 271.974 28.1353 272.023 28.2002C272.436 28.7512 272.783 29.3554 273.051 30.0008C273.456 30.9787 273.68 32.0509 273.68 33.1754V52.8721V54.9454V57.0187C271.39 57.0187 269.533 55.1622 269.533 52.8721V33.1754C269.533 32.6055 269.421 32.0724 269.22 31.5892C268.956 30.9519 268.863 30.2864 268.919 29.6435C268.276 29.6996 267.61 29.6061 266.973 29.3418C266.49 29.1414 265.957 29.0287 265.387 29.0287H243.962ZM269.533 171.052C269.533 168.762 271.39 166.905 273.68 166.905V168.979V171.052V190.749C273.68 191.873 273.456 192.946 273.051 193.923C272.783 194.569 272.436 195.173 272.023 195.724C271.974 195.789 271.924 195.853 271.874 195.916C271.485 196.404 271.042 196.847 270.554 197.236C270.512 197.269 270.469 197.303 270.427 197.336C270.405 197.352 270.384 197.368 270.362 197.385C269.811 197.798 269.207 198.145 268.561 198.413C267.583 198.818 266.511 199.042 265.387 199.042H243.962H241.889H239.816C239.816 196.752 241.672 194.895 243.962 194.895H265.387C265.957 194.895 266.49 194.783 266.973 194.582C267.61 194.318 268.276 194.225 268.919 194.281C268.863 193.638 268.956 192.972 269.22 192.335C269.421 191.852 269.533 191.319 269.533 190.749V171.052Z" fill="#5968EE"/>
<path fill-rule="evenodd" clip-rule="evenodd" d="M33.1924 3.8147e-05C28.6121 3.8147e-05 24.899 3.71308 24.899 8.29336V165.867C24.899 170.447 28.6121 174.16 33.1924 174.16H290.286C294.866 174.16 298.579 170.447 298.579 165.867V8.29337C298.579 3.71309 294.866 3.8147e-05 290.286 3.8147e-05H33.1924ZM73.4267 35.2489H89.6604L123.664 128.44H108.967L102.487 110.734H60.6L54.1866 128.44H39.4226L73.4267 35.2489ZM65.744 96.8881H97.343L81.5101 53.6208L65.744 96.8881ZM147.326 161.722H133.431V61.8749H147.326V71.6599C149.553 68.2429 152.403 65.4694 155.877 63.3393C159.351 61.2092 163.449 60.1442 168.169 60.1442C173.024 60.1442 177.567 61.0539 181.798 62.8734C186.073 64.6928 189.814 67.2223 193.021 70.4618C196.228 73.6569 198.744 77.3623 200.57 81.5781C202.396 85.7939 203.309 90.3203 203.309 95.1574C203.309 99.9944 202.396 104.543 200.57 108.803C198.744 113.063 196.228 116.813 193.021 120.053C189.814 123.248 186.073 125.755 181.798 127.574C177.567 129.394 173.024 130.304 168.169 130.304C163.449 130.304 159.351 129.239 155.877 127.109C152.403 124.934 149.553 122.161 147.326 118.788V161.722ZM168.036 73.5238C164.161 73.5238 160.754 74.5 157.815 76.4526C154.875 78.4052 152.581 81.0234 150.934 84.3073C149.286 87.5468 148.462 91.1635 148.462 95.1574C148.462 99.1513 149.286 102.79 150.934 106.074C152.581 109.358 154.875 111.976 157.815 113.929C160.754 115.881 164.161 116.858 168.036 116.858C171.866 116.858 175.384 115.903 178.591 113.995C181.798 112.043 184.359 109.424 186.274 106.141C188.189 102.857 189.146 99.1956 189.146 95.1574C189.146 91.2078 188.189 87.5911 186.274 84.3073C184.403 81.0234 181.865 78.4052 178.658 76.4526C175.451 74.5 171.911 73.5238 168.036 73.5238ZM214.197 161.722H228.093V118.788C230.32 122.161 233.17 124.934 236.644 127.109C240.118 129.239 244.215 130.304 248.936 130.304C253.791 130.304 258.334 129.394 262.565 127.574C266.84 125.755 270.581 123.248 273.788 120.053C276.995 116.813 279.511 113.063 281.337 108.803C283.163 104.543 284.076 99.9944 284.076 95.1574C284.076 90.3203 283.163 85.7939 281.337 81.5781C279.511 77.3623 276.995 73.6569 273.788 70.4618C270.581 67.2223 266.84 64.6928 262.565 62.8734C258.334 61.0539 253.791 60.1442 248.936 60.1442C244.215 60.1442 240.118 61.2092 236.644 63.3393C233.17 65.4694 230.32 68.2429 228.093 71.6599V61.8749H214.197V161.722ZM238.581 76.4526C241.521 74.5 244.928 73.5238 248.803 73.5238C252.677 73.5238 256.218 74.5 259.425 76.4526C262.631 78.4052 265.17 81.0234 267.041 84.3073C268.956 87.5911 269.913 91.2078 269.913 95.1574C269.913 99.1956 268.956 102.857 267.041 106.141C265.126 109.424 262.565 112.043 259.358 113.995C256.151 115.903 252.633 116.858 248.803 116.858C244.928 116.858 241.521 115.881 238.581 113.929C235.642 111.976 233.348 109.358 231.701 106.074C230.053 102.79 229.229 99.1513 229.229 95.1574C229.229 91.1635 230.053 87.5468 231.701 84.3073C233.348 81.0234 235.642 78.4052 238.581 76.4526Z" fill="#7D8AFF"/>
<circle cx="39.4156" cy="14.5126" r="6.22" fill="#5968EE"/>
<circle cx="55.9925" cy="14.5126" r="6.22" fill="#5968EE"/>
<circle cx="72.5861" cy="14.5126" r="6.22" fill="#5968EE"/>
</svg>
